<svg xmlns="http://www.w3.org/2000/svg" width="54.451" height="108.979" viewBox="0 0 54.451 108.979">
  <path id="MTG_Logo" data-name="MTG Logo" d="M2.879,24.86c.951-.813.758,6.42,1.952,12.619s2.6,12.571,2.6,12.571l4.112-1.51L12.9,34.226s.338-23.841,2.316-23.659c.923-.2,1.431,6.012,1.8,15.1S19.25,46.875,19.25,46.875L23.1,46.3s.755-2.915,1.484-14.94S26.065-.276,27.409-.276s2.33,20,2.877,31.638S31.717,46.3,31.717,46.3l3.852.573s1.744-12.155,2.238-21.212S38.6,10.506,39.57,10.52c1.288.019,1.542,12.715,2.376,23.705C42.5,41.574,43.3,48.541,43.3,48.541l4.16,1.51s1.292-6.277,2.379-12.571S50.9,23.646,52,24.86c.58.644,1.5,8.742,2.148,16.539a145.591,145.591,0,0,1,.438,14.649s-9.59,2.6-16.479,15.74a64.665,64.665,0,0,0-7.055,23.87c-1.063,9.76-1.86,13.046-3.576,13.046-1.778,0-2.319-3.672-3.576-13.046a73.187,73.187,0,0,0-7.055-23.87C10.016,58.627.164,56.06.164,56.06S.465,49.432.8,41.4,1.922,25.678,2.879,24.86Z" transform="translate(-0.164 0.276)" fill="#f5f5f5"/>
</svg>
